Coordinates
version=1
nRows=65
nColumns=12
inDegrees=yes

Units are S.I. units (second, meters, Newtons, ...)
Angles are in degrees

endheader
time	SC_y	SC_z	SC_x	AC_y	AC_z	AC_x	GH_y	GH_z	GH_yy	EL_x	PS_y
       0.0              -18.51          16.56          59.01          52.49          2.071         -9.834          3.019          55.86         -142.7          137.1          132.2
  0.003624              -18.51          16.56          59.02          52.49          2.068         -9.835           3.01          55.85         -142.6          137.1          132.1
  0.007248              -18.51          16.56          59.02          52.49          2.066         -9.836            3.0          55.84         -142.6          137.1          132.1
   0.01087              -18.52          16.56          59.02          52.49          2.063         -9.837           2.99          55.83         -142.5          137.1          132.1
    0.0145              -18.52          16.55          59.02          52.49           2.06         -9.838          2.979          55.82         -142.5          137.1          132.1
   0.01812              -18.52          16.55          59.03          52.49          2.057         -9.839          2.967          55.81         -142.4          137.1          132.1
   0.02174              -18.53          16.55          59.03          52.49          2.053         -9.841          2.954          55.79         -142.4          137.1          132.1
   0.02537              -18.53          16.55          59.04          52.49           2.05         -9.842          2.941          55.78         -142.3          137.1          132.0
   0.02899              -18.54          16.54          59.04          52.49          2.046         -9.843          2.926          55.76         -142.2          137.1          132.0
   0.03262              -18.54          16.54          59.05          52.49          2.042         -9.845           2.91          55.75         -142.2          137.1          132.0
   0.03624              -18.55          16.54          59.05          52.49          2.037         -9.846          2.894          55.73         -142.1          137.1          132.0
   0.03987              -18.55          16.53          59.06          52.49          2.032         -9.848          2.876          55.71         -142.0          137.1          131.9
   0.04349              -18.56          16.53          59.06          52.49          2.027          -9.85          2.856          55.69         -141.9          137.1          131.9
   0.04711              -18.57          16.52          59.07          52.49          2.022         -9.852          2.835          55.67         -141.8          137.1          131.9
   0.05074              -18.57          16.52          59.08          52.49          2.016         -9.854          2.813          55.64         -141.7          137.1          131.8
   0.05436              -18.58          16.51          59.08          52.48          2.009         -9.857          2.788          55.62         -141.6          137.1          131.8
   0.05799              -18.59          16.51          59.09          52.48          2.002         -9.859          2.761          55.59         -141.4          137.0          131.8
   0.06161               -18.6           16.5           59.1          52.48          1.994         -9.862          2.732          55.56         -141.3          137.0          131.7
   0.06523              -18.61           16.5          59.11          52.48          1.985         -9.865            2.7          55.52         -141.2          137.0          131.7
   0.06886              -18.62          16.49          59.12          52.48          1.976         -9.869          2.666          55.49         -141.0          137.0          131.6
   0.07248              -18.64          16.48          59.13          52.48          1.966         -9.872          2.627          55.45         -140.8          137.0          131.6
   0.07611              -18.65          16.47          59.15          52.48          1.955         -9.877          2.585           55.4         -140.6          137.0          131.5
   0.07973              -18.67          16.46          59.16          52.47          1.942         -9.881          2.539          55.35         -140.4          137.0          131.4
   0.08335              -18.68          16.45          59.18          52.47          1.928         -9.886          2.487           55.3         -140.1          137.0          131.4
   0.08698               -18.7          16.44          59.19          52.47          1.913         -9.892           2.43          55.24         -139.8          137.0          131.3
    0.0906              -18.72          16.43          59.21          52.47          1.896         -9.898          2.366          55.17         -139.5          137.0          131.2
   0.09423              -18.75          16.41          59.24          52.47          1.877         -9.905          2.295          55.09         -139.2          136.9          131.1
   0.09785              -18.77          16.39          59.26          52.46          1.855         -9.913          2.214          55.01         -138.8          136.9          131.0
    0.1015               -18.8          16.38          59.29          52.46          1.831         -9.922          2.123          54.91         -138.4          136.9          130.8
    0.1051              -18.84          16.35          59.32          52.45          1.803         -9.932           2.02           54.8         -137.9          136.9          130.7
    0.1087              -18.88          16.33          59.36          52.45          1.771         -9.943          1.902          54.68         -137.3          136.9          130.5
    0.1123              -18.92           16.3           59.4          52.44          1.735         -9.956          1.766          54.53         -136.6          136.8          130.3
     0.116              -18.98          16.27          59.45          52.44          1.693         -9.972           1.61          54.37         -135.9          136.8          130.1
    0.1196              -19.04          16.23           59.5          52.43          1.645         -9.989          1.429          54.17         -135.0          136.7          129.8
    0.1232              -19.11          16.19          59.57          52.42          1.588         -10.01          1.216          53.95         -134.0          136.7          129.5
    0.1268              -19.19          16.13          59.64          52.41          1.521         -10.03          0.966          53.68         -132.8          136.6          129.1
    0.1305              -19.29          16.07          59.74           52.4          1.441         -10.06         0.6684          53.37         -131.3          136.6          128.7
    0.1341              -19.41           16.0          59.85          52.39          1.346          -10.1         0.3118          52.99         -129.6          136.5          128.2
    0.1377              -19.55          15.91          59.98          52.37           1.23         -10.14        -0.1197          52.53         -127.5          136.4          127.5
    0.1413              -19.73           15.8          60.14          52.35          1.089         -10.19        -0.6468          51.97         -125.0          136.3          126.8
     0.145              -19.94          15.66          60.34          52.33         0.9145         -10.26         -1.297          51.28         -121.8          136.1          125.8
    0.1486              -20.21           15.5          60.59          52.29         0.6972         -10.33         -2.109          50.42         -117.9          135.9          124.6
    0.1522              -20.55          15.28           60.9          52.25         0.4234         -10.43         -3.131          49.33         -113.0          135.7          123.1
    0.1558              -20.99          15.01           61.3           52.2        0.07538         -10.56          -4.43          47.96         -106.7          135.4          121.2
    0.1595              -21.54          14.67          61.82          52.14        -0.3701         -10.72         -6.092          46.19         -98.67          135.0          118.8
    0.1631              -22.25          14.22          62.47          52.06        -0.9417         -10.93         -8.226          43.93         -88.35          134.5          115.6
    0.1667              -23.16          13.66          63.31          51.95         -1.672          -11.2         -10.95          41.03         -75.18          133.9          111.6
    0.1703               -24.3          12.95          64.37          51.82          -2.59         -11.53         -14.38           37.4         -58.63          133.1          106.6
     0.174              -25.69          12.08          65.65          51.66         -3.709         -11.94         -18.56          32.96         -38.45          132.2          100.5
    0.1776              -27.31          11.07          67.14          51.47         -5.006         -12.41          -23.4          27.83         -15.05          131.1          93.39
    0.1812              -29.05          9.982          68.75          51.26          -6.41         -12.92         -28.64          22.26          10.27          129.9           85.7
    0.1848               -30.8          8.892          70.37          51.06         -7.814         -13.43         -33.88           16.7           35.6          128.7           78.0
    0.1885              -32.41          7.886          71.86          50.87         -9.111          -13.9         -38.72          11.56          58.99          127.6           70.9
    0.1921               -33.8          7.018          73.14          50.71         -10.23         -14.31          -42.9          7.127          79.17          126.7          64.77
    0.1957              -34.95          6.306           74.2          50.58         -11.15         -14.65         -46.33           3.49          95.73          125.9          59.74
    0.1993              -35.85          5.739          75.04          50.47         -11.88         -14.91         -49.05         0.5968          108.9          125.3          55.74
     0.203              -36.56          5.296          75.69          50.39         -12.45         -15.12         -51.19         -1.668          119.2          124.8          52.61
    0.2066              -37.12           4.95           76.2          50.32          -12.9         -15.28         -52.85         -3.433          127.2          124.4          50.17
    0.2102              -37.55           4.68           76.6          50.27         -13.24         -15.41         -54.15         -4.812          133.5          124.1          48.26
    0.2138              -37.89          4.468          76.92          50.23         -13.52         -15.51         -55.17         -5.896          138.5          123.9          46.76
    0.2174              -38.16          4.299          77.17           50.2         -13.73         -15.59         -55.98         -6.757          142.4          123.7          45.57
    0.2211              -38.38          4.164          77.37          50.18         -13.91         -15.65         -56.63         -7.448          145.5          123.5          44.62
    0.2247              -38.55          4.054          77.53          50.16         -14.05          -15.7         -57.16         -8.007          148.1          123.4          43.85
    0.2283               -38.7          3.965          77.66          50.14         -14.17         -15.74         -57.59         -8.465          150.2          123.3          43.21
    0.2319              -38.82          3.891          77.77          50.13         -14.26         -15.78         -57.95         -8.844          151.9          123.2          42.69
